<svg width="375" height="345" viewBox="0 0 375 345" fill="none" xmlns="http://www.w3.org/2000/svg">
<path opacity="0.1" fill-rule="evenodd" clip-rule="evenodd" d="M360.438 157.25C392.366 157.25 418.25 131.366 418.25 99.4375C418.25 67.5085 392.366 41.625 360.438 41.625C328.509 41.625 302.625 67.5085 302.625 99.4375C302.625 131.366 328.509 157.25 360.438 157.25Z" fill="white"/>
<path opacity="0.2" fill-rule="evenodd" clip-rule="evenodd" d="M362 201C417.228 201 462 156.228 462 101C462 45.7715 417.228 1 362 1C306.772 1 262 45.7715 262 101C262 156.228 306.772 201 362 201Z" stroke="white"/>
<path fill-rule="evenodd" clip-rule="evenodd" d="M306 191C311.523 191 316 186.523 316 181C316 175.477 311.523 171 306 171C300.477 171 296 175.477 296 181C296 186.523 300.477 191 306 191Z" fill="#FF2C79"/>
<path opacity="0.1" fill-rule="evenodd" clip-rule="evenodd" d="M-1.5625 300.25C30.3665 300.25 56.25 274.366 56.25 242.438C56.25 210.509 30.3665 184.625 -1.5625 184.625C-33.4915 184.625 -59.375 210.509 -59.375 242.438C-59.375 274.366 -33.4915 300.25 -1.5625 300.25Z" fill="white"/>
<path opacity="0.2" fill-rule="evenodd" clip-rule="evenodd" d="M0 344C55.2285 344 100 299.228 100 244C100 188.772 55.2285 144 0 144C-55.2285 144 -100 188.772 -100 244C-100 299.228 -55.2285 344 0 344Z" stroke="white"/>
<path fill-rule="evenodd" clip-rule="evenodd" d="M57 170C60.866 170 64 166.866 64 163C64 159.134 60.866 156 57 156C53.134 156 50 159.134 50 163C50 166.866 53.134 170 57 170Z" fill="#FF2C79"/>
</svg>
