<svg width="115" height="25" viewBox="0 0 115 25" fill="none" xmlns="http://www.w3.org/2000/svg">
<path d="M21.06 24.73H13.65L10.38 20.74C4.2 20.26 0.6 16.3 0.6 10.45C0.6 4.18 4.74 0.0999998 11.73 0.0999998C18.9 0.0999998 22.98 4.18 22.98 10.45C22.98 15.1 20.76 18.52 16.68 19.99L21.06 24.73ZM11.73 15.4C15.81 15.4 16.98 14.44 16.98 10.45C16.98 6.46 15.81 5.5 11.73 5.5C7.65 5.5 6.6 6.46 6.6 10.45C6.6 14.44 7.65 15.4 11.73 15.4ZM30.694 20.8C26.464 20.8 24.484 18.34 24.484 15.07V5.38H30.124V13C30.124 15.1 30.934 15.76 33.514 15.76C36.124 15.76 36.754 15.13 36.754 13.18V5.38H42.394V20.5H37.114V15.91H36.814C36.484 18.43 34.804 20.8 30.694 20.8ZM49.7236 4H44.0836V0.399999H49.7236V4ZM49.7236 20.5H44.0836V5.38H49.7236V20.5ZM67.515 20.5H51.075V15.7L56.535 12.04L59.685 10.45V10.06L56.535 10.3H51.525V5.38H67.065V10.18L61.125 13.99L58.185 15.49V15.88L61.125 15.58H67.515V20.5ZM74.5088 20.5H68.8688V0.399999H76.5188L80.2088 8.74L82.1888 13.93H82.5788L84.4688 8.74L87.9788 0.399999H95.6288V20.5H89.9888V12.19L90.1988 8.83H89.8088L88.6688 12.19L85.6688 19.3H78.8288L75.8288 12.19L74.6888 8.83H74.2988L74.5088 12.19V20.5ZM105.863 20.8C100.733 20.8 97.1332 18.61 97.1332 12.94C97.1332 8.02 100.703 5.08 105.743 5.08C110.963 5.08 114.293 7.69 114.293 12.55C114.293 13.06 114.263 13.45 114.203 13.99H102.353C102.443 15.82 103.253 16.33 105.653 16.33C107.933 16.33 108.533 15.94 108.533 15.04V14.71H114.173V15.07C114.173 18.43 110.963 20.8 105.863 20.8ZM105.623 9.4C103.553 9.4 102.683 9.85 102.443 11.14H108.833C108.623 9.85 107.723 9.4 105.623 9.4Z" fill="white"/>
</svg>
