<svg width="22" height="23" viewBox="0 0 22 23" fill="none" xmlns="http://www.w3.org/2000/svg">
<path d="M11 22.45C5.07 22.45 0.25 17.63 0.25 11.7C0.25 5.77001 5.07 0.950012 11 0.950012C16.93 0.950012 21.75 5.77001 21.75 11.7C21.75 17.63 16.93 22.45 11 22.45ZM11 2.45001C5.9 2.45001 1.75 6.60001 1.75 11.7C1.75 16.8 5.9 20.95 11 20.95C16.1 20.95 20.25 16.8 20.25 11.7C20.25 6.60001 16.1 2.45001 11 2.45001Z" fill="#ffffff"/>
<path d="M15 12.45H7C6.59 12.45 6.25 12.11 6.25 11.7C6.25 11.29 6.59 10.95 7 10.95H15C15.41 10.95 15.75 11.29 15.75 11.7C15.75 12.11 15.41 12.45 15 12.45Z" fill="#ffffff"/>
<path d="M11 16.45C10.59 16.45 10.25 16.11 10.25 15.7V7.70001C10.25 7.29001 10.59 6.95001 11 6.95001C11.41 6.95001 11.75 7.29001 11.75 7.70001V15.7C11.75 16.11 11.41 16.45 11 16.45Z" fill="#ffffff"/>
</svg>
