<svg width="17" height="20" viewBox="0 0 17 20" fill="none" xmlns="http://www.w3.org/2000/svg">
<path d="M13.7672 10.5555C13.7578 8.95703 14.482 7.75234 15.9445 6.86406C15.1266 5.69219 13.8891 5.04766 12.2578 4.92344C10.7133 4.80156 9.02344 5.82344 8.40469 5.82344C7.75078 5.82344 6.25547 4.96563 5.07891 4.96563C2.65078 5.00313 0.0703125 6.90156 0.0703125 10.7641C0.0703125 11.9055 0.278906 13.0844 0.696094 14.2984C1.25391 15.8969 3.26484 19.8133 5.3625 19.75C6.45937 19.7242 7.23516 18.9719 8.6625 18.9719C10.0477 18.9719 10.7648 19.75 11.9883 19.75C14.1047 19.7195 15.9234 16.1594 16.4531 14.5563C13.6148 13.218 13.7672 10.6375 13.7672 10.5555ZM11.3039 3.40703C12.4922 1.99609 12.3844 0.711719 12.3492 0.25C11.2992 0.310938 10.0852 0.964844 9.39375 1.76875C8.63203 2.63125 8.18437 3.69766 8.28047 4.9C9.41484 4.98672 10.4508 4.40313 11.3039 3.40703Z" fill="black"/>
</svg>
