<svg width="11" height="22" viewBox="0 0 11 22" fill="none" xmlns="http://www.w3.org/2000/svg">
<path d="M9.5 5.74761V16.3276C9.5 18.4176 7.97 20.2776 5.89 20.4776C3.5 20.7076 1.5 18.8376 1.5 16.4976V4.13761C1.5 2.82761 2.44 1.63761 3.74 1.50761C5.24 1.35761 6.5 2.52761 6.5 3.99761V14.4976C6.5 15.0476 6.05 15.4976 5.5 15.4976C4.95 15.4976 4.5 15.0476 4.5 14.4976V5.74761C4.5 5.33761 4.16 4.99761 3.75 4.99761C3.34 4.99761 3 5.33761 3 5.74761V14.3576C3 15.6676 3.94 16.8576 5.24 16.9876C6.74 17.1376 8 15.9676 8 14.4976V4.16761C8 2.07761 6.47 0.217613 4.39 0.0176131C2.01 -0.212387 0 1.65761 0 3.99761V16.2676C0 19.1376 2.1 21.7076 4.96 21.9776C8.25 22.2776 11 19.7176 11 16.4976V5.74761C11 5.33761 10.66 4.99761 10.25 4.99761C9.84 4.99761 9.5 5.33761 9.5 5.74761Z" fill="black"/>
</svg>
