<svg width="20" height="20" viewBox="0 0 20 20" fill="none" xmlns="http://www.w3.org/2000/svg">
<path d="M11.5252 18.4381L11.525 18.438C10.5132 18.008 9.49519 17.4188 8.50432 16.705L8.50315 16.7042C7.52239 15.9833 6.57531 15.1786 5.6786 14.2987L5.6771 14.2972C4.7885 13.4002 3.98368 12.4529 3.271 11.4803L3.27006 11.479L3.27007 11.479C2.54815 10.4717 1.96722 9.462 1.55381 8.48333L1.55366 8.48297C1.11395 7.43442 0.891992 6.4147 0.891992 5.44996C0.891992 4.7817 1.012 4.14646 1.24397 3.55363L1.24412 3.55326C1.4858 2.94043 1.8734 2.37254 2.39642 1.88343C3.06211 1.227 3.83157 0.891626 4.65866 0.891626C5.00529 0.891626 5.36026 0.971304 5.66369 1.114C6.01093 1.27436 6.30755 1.51616 6.5239 1.83991L8.45515 4.56198C8.45529 4.56218 8.45543 4.56237 8.45557 4.56256C8.63534 4.8109 8.77512 5.05434 8.87232 5.30103C8.98658 5.56544 9.05033 5.83493 9.05033 6.09996C9.05033 6.44593 8.95015 6.77992 8.76356 7.09167C8.63001 7.3314 8.42939 7.58287 8.18254 7.82988L7.68964 8.34453C7.79175 8.51521 7.98358 8.79457 8.33053 9.20192C8.73749 9.66701 9.11821 10.0891 9.49818 10.4773C9.98851 10.9593 10.3929 11.3387 10.7709 11.651L10.772 11.6519C11.1778 11.9936 11.4552 12.1832 11.6318 12.2829L12.1276 11.7939C12.1277 11.7937 12.1279 11.7936 12.1281 11.7934C12.3919 11.5296 12.6523 11.3283 12.9097 11.1944C13.4113 10.8864 14.0437 10.8369 14.6661 11.0947L14.6671 11.0951C14.8935 11.1909 15.1361 11.321 15.3947 11.5021L15.3956 11.5027L18.1608 13.4683C18.4903 13.6913 18.7348 13.9797 18.8802 14.3251L18.8816 14.3282L18.8815 14.3282C19.0125 14.6601 19.0753 14.9704 19.0753 15.2833C19.0753 15.7063 18.9784 16.1279 18.7946 16.5217C18.6133 16.9101 18.3883 17.2478 18.103 17.5592M11.5252 18.4381L17.992 17.4583M11.5252 18.4381C12.5648 18.8776 13.5764 19.1083 14.542 19.1083C15.2196 19.1083 15.8637 18.9796 16.4567 18.739M11.5252 18.4381L16.4003 18.6M18.103 17.5592C18.1029 17.5593 18.1027 17.5595 18.1026 17.5597L17.992 17.4583M18.103 17.5592C18.1031 17.5591 18.1032 17.559 18.1032 17.5589L17.992 17.4583M18.103 17.5592C17.615 18.0985 17.0802 18.4878 16.4567 18.739M17.992 17.4583C17.517 17.9833 17.0003 18.3583 16.4003 18.6M16.4567 18.739L16.4003 18.6M16.4567 18.739C16.4566 18.739 16.4565 18.739 16.4564 18.7391L16.4003 18.6M14.1337 12.375L14.0765 12.5137C14.2059 12.5669 14.3462 12.6443 14.5055 12.7559C14.5057 12.756 14.5058 12.7561 14.506 12.7562L17.2718 14.7222L17.2717 14.7222L17.274 14.7238C17.4031 14.8121 17.4396 14.8806 17.4563 14.9139C17.5134 15.0434 17.5337 15.1551 17.5337 15.2666C17.5337 15.4598 17.4892 15.6543 17.3984 15.8434L17.3978 15.8446C17.2791 16.098 17.1375 16.3101 16.9566 16.5067L16.955 16.5085C16.6275 16.876 16.2709 17.1288 15.8682 17.2946L15.8676 17.2948C14.8193 17.7316 13.5309 17.6035 12.1259 17.0037L12.1249 17.0032C11.2205 16.6251 10.3057 16.0979 9.41389 15.4456L9.41375 15.4455C8.49509 14.7751 7.60099 14.0135 6.77306 13.1939C5.94514 12.3576 5.19193 11.4719 4.52997 10.5617C3.86911 9.65306 3.35007 8.74624 2.98007 7.87468C2.61987 7.02324 2.44199 6.20151 2.44199 5.44996C2.44199 4.97578 2.52225 4.53671 2.68941 4.1228L2.68942 4.1228L2.68997 4.12139C2.84784 3.71881 3.10112 3.34549 3.46942 3.00121L3.46945 3.00124L3.47196 2.99878C3.86019 2.61847 4.24943 2.44163 4.65866 2.44163C4.77629 2.44163 4.89694 2.46922 5.01351 2.51998C5.11366 2.56702 5.19313 2.63304 5.26142 2.72856C5.26148 2.72865 5.26154 2.72873 5.2616 2.72881L7.19453 5.46158L7.19451 5.4616L7.19623 5.46394C7.30863 5.61647 7.39332 5.75616 7.4457 5.87553C7.48357 5.96676 7.50033 6.04515 7.50033 6.08329C7.50033 6.13375 7.48597 6.19855 7.43091 6.28801L7.43088 6.288L7.42937 6.29057C7.35402 6.41866 7.23773 6.56709 7.07759 6.72723L7.07757 6.72721L7.07553 6.72933L6.45154 7.37828C6.21496 7.6154 6.09199 7.92017 6.09199 8.25829C6.09199 8.39305 6.11199 8.51529 6.16352 8.71282L6.16589 8.72193L6.16939 8.73067L6.26939 8.98067L6.27255 8.98858L6.27659 8.99607C6.45881 9.33448 6.74979 9.73537 7.14462 10.1974L7.14518 10.1981C7.57225 10.6921 7.9827 11.1361 8.39319 11.5549L8.39318 11.555L8.39511 11.5569C8.92192 12.0753 9.3579 12.4778 9.76124 12.8223L9.76157 12.8226C10.208 13.2017 10.6169 13.4921 10.9711 13.6821L10.9709 13.6825L10.9811 13.687L11.2061 13.787L11.2059 13.7873L11.215 13.7907C11.6478 13.9506 12.21 13.8679 12.58 13.5074L12.5807 13.5067L13.214 12.8817L13.2147 12.881C13.3771 12.7186 13.5137 12.6068 13.6591 12.5341L13.6593 12.5347L13.6708 12.5276C13.8019 12.4466 13.8581 12.4408 13.8882 12.4432C13.9056 12.4446 13.9252 12.4497 13.956 12.462C13.9717 12.4682 13.9883 12.4755 14.0088 12.4846L14.0105 12.4853C14.03 12.4939 14.0525 12.5038 14.0769 12.5138L14.1337 12.375ZM14.1337 12.375C14.1112 12.3658 14.0903 12.3566 14.0705 12.3478C13.9288 12.2853 13.8406 12.2464 13.592 12.4L14.592 12.6333C14.4253 12.5166 14.2753 12.4333 14.1337 12.375ZM17.067 16.6083C16.7253 16.9916 16.3503 17.2583 15.9253 17.4333C14.8253 17.8916 13.492 17.75 12.067 17.1416C11.1503 16.7583 10.2253 16.225 9.32533 15.5666L17.067 16.6083ZM17.067 16.6083C17.2587 16.4 17.4087 16.175 17.5337 15.9083L17.067 16.6083Z" fill="" stroke="black" stroke-width="0.3"/>
</svg>
