<svg width="14" height="14" viewBox="0 0 14 14" fill="none" xmlns="http://www.w3.org/2000/svg">
<path d="M13.7074 0.709971C13.3174 0.319971 12.6874 0.319971 12.2974 0.709971L7.40744 5.58997L2.51744 0.699971C2.12744 0.309971 1.49744 0.309971 1.10744 0.699971C0.717441 1.08997 0.717441 1.71997 1.10744 2.10997L5.99744 6.99997L1.10744 11.89C0.717441 12.28 0.717441 12.91 1.10744 13.3C1.49744 13.69 2.12744 13.69 2.51744 13.3L7.40744 8.40997L12.2974 13.3C12.6874 13.69 13.3174 13.69 13.7074 13.3C14.0974 12.91 14.0974 12.28 13.7074 11.89L8.81744 6.99997L13.7074 2.10997C14.0874 1.72997 14.0874 1.08997 13.7074 0.709971Z" fill="black"/>
</svg>
