<svg width="22" height="22" viewBox="0 0 22 22" fill="none" xmlns="http://www.w3.org/2000/svg">
<path d="M10.0698 17.17C9.89983 17.17 9.73983 17.14 9.56983 17.08C9.01983 16.87 8.65983 16.36 8.65983 15.77V12.47H7.67983C7.11983 12.47 6.62983 12.15 6.39983 11.65C6.16983 11.14 6.25983 10.57 6.62983 10.15L10.8898 5.30999C11.2798 4.86999 11.8798 4.71999 12.4298 4.92999C12.9798 5.13999 13.3398 5.64999 13.3398 6.23999V9.53999H14.3298C14.8898 9.53999 15.3798 9.85999 15.6098 10.36C15.8398 10.87 15.7498 11.44 15.3798 11.86L11.1198 16.7C10.8398 17 10.4598 17.17 10.0698 17.17ZM7.89983 10.97H9.40983C9.81983 10.97 10.1598 11.31 10.1598 11.72V15.5L14.0998 11.03H12.5898C12.1798 11.03 11.8398 10.69 11.8398 10.28V6.49999L7.89983 10.97Z" fill="#ffffff"/>
<path d="M10.9702 21.75C5.05021 21.75 0.220215 16.93 0.220215 11C0.220215 5.07 5.05021 0.25 10.9702 0.25C16.8902 0.25 21.7202 5.07 21.7202 11C21.7202 16.93 16.9002 21.75 10.9702 21.75ZM10.9702 1.75C5.87021 1.75 1.72021 5.9 1.72021 11C1.72021 16.1 5.87021 20.25 10.9702 20.25C16.0702 20.25 20.2202 16.1 20.2202 11C20.2202 5.9 16.0702 1.75 10.9702 1.75Z" fill="#ffffff"/>
</svg>
