<svg width="21" height="20" viewBox="0 0 21 20" fill="none" xmlns="http://www.w3.org/2000/svg">
<path d="M20.5555 8.0415H19.75V8H10.75V12H16.4015C15.577 14.3285 13.3615 16 10.75 16C7.4365 16 4.75 13.3135 4.75 10C4.75 6.6865 7.4365 4 10.75 4C12.2795 4 13.671 4.577 14.7305 5.5195L17.559 2.691C15.773 1.0265 13.384 0 10.75 0C5.2275 0 0.75 4.4775 0.75 10C0.75 15.5225 5.2275 20 10.75 20C16.2725 20 20.75 15.5225 20.75 10C20.75 9.3295 20.681 8.675 20.5555 8.0415Z" fill="#FFC107"/>
<path d="M1.90332 5.3455L5.18882 7.755C6.07782 5.554 8.23082 4 10.7503 4C12.2798 4 13.6713 4.577 14.7308 5.5195L17.5593 2.691C15.7733 1.0265 13.3843 0 10.7503 0C6.90932 0 3.57832 2.1685 1.90332 5.3455Z" fill="#FF3D00"/>
<path d="M10.7502 20.0003C13.3332 20.0003 15.6802 19.0118 17.4547 17.4043L14.3597 14.7853C13.3219 15.5745 12.0539 16.0014 10.7502 16.0003C8.14916 16.0003 5.94066 14.3418 5.10866 12.0273L1.84766 14.5398C3.50266 17.7783 6.86366 20.0003 10.7502 20.0003Z" fill="#4CAF50"/>
<path d="M20.5555 8.0415H19.75V8H10.75V12H16.4015C16.0071 13.1082 15.2967 14.0766 14.358 14.7855L14.3595 14.7845L17.4545 17.4035C17.2355 17.6025 20.75 15 20.75 10C20.75 9.3295 20.681 8.675 20.5555 8.0415Z" fill="#1976D2"/>
</svg>
