<svg width="23" height="21" viewBox="0 0 23 21" fill="none" xmlns="http://www.w3.org/2000/svg">
<path d="M21.6333 15.2399V3.16994C21.6333 1.96994 20.6533 1.07994 19.4633 1.17994H19.4033C17.3033 1.35994 14.1133 2.42994 12.3333 3.54994L12.1633 3.65994C11.8733 3.83994 11.3933 3.83994 11.1033 3.65994L10.8533 3.50994C9.0733 2.39994 5.8933 1.33994 3.7933 1.16994C2.6033 1.06994 1.6333 1.96994 1.6333 3.15994V15.2399C1.6333 16.1999 2.4133 17.0999 3.3733 17.2199L3.6633 17.2599C5.8333 17.5499 9.1833 18.6499 11.1033 19.6999L11.1433 19.7199C11.4133 19.8699 11.8433 19.8699 12.1033 19.7199C14.0233 18.6599 17.3833 17.5499 19.5633 17.2599L19.8933 17.2199C20.8533 17.0999 21.6333 16.1999 21.6333 15.2399Z" stroke="#FFFFFF" stroke-width="1.5" stroke-linecap="round" stroke-linejoin="round"/>
<path d="M11.6333 3.98999V18.99" stroke="#FFFFFF" stroke-width="1.5" stroke-linecap="round" stroke-linejoin="round"/>
<path d="M7.3833 6.98999H5.1333" stroke="#FFFFFF" stroke-width="1.5" stroke-linecap="round" stroke-linejoin="round"/>
<path d="M8.1333 9.98999H5.1333" stroke="#FFFFFF" stroke-width="1.5" stroke-linecap="round" stroke-linejoin="round"/>
</svg>
