<svg width="18" height="18" viewBox="0 0 18 18" fill="none" xmlns="http://www.w3.org/2000/svg">
<path d="M6.5 4.625V11.5M11.5 6.5V13.375M11.9193 16.2904L15.9818 14.2591C16.2994 14.1003 16.5 13.7757 16.5 13.4206V3.01691C16.5 2.31999 15.7666 1.86671 15.1432 2.17838L11.9193 3.79037C11.6553 3.92233 11.3447 3.92233 11.0807 3.79037L6.91926 1.70963C6.65533 1.57767 6.34467 1.57767 6.08074 1.70963L2.01824 3.74088C1.70063 3.89969 1.5 4.22431 1.5 4.57941V14.9831C1.5 15.68 2.23342 16.1333 2.85676 15.8216L6.08074 14.2096C6.34467 14.0777 6.65533 14.0777 6.91926 14.2096L11.0807 16.2904C11.3447 16.4223 11.6553 16.4223 11.9193 16.2904Z" stroke="black" stroke-width="1.5" stroke-linecap="round" stroke-linejoin="round"/>
</svg>
