<svg width="22" height="23" viewBox="0 0 22 23" fill="none" xmlns="http://www.w3.org/2000/svg">
<path d="M10.8999 17.75C10.766 17.75 10.6499 17.6339 10.6499 17.5V14.5C10.6499 14.3661 10.766 14.25 10.8999 14.25C11.0338 14.25 11.1499 14.3661 11.1499 14.5V17.5C11.1499 17.6339 11.0338 17.75 10.8999 17.75Z" stroke="#FFFFFF"/>
<path d="M16.4999 22.06H5.29986C3.47986 22.06 1.81986 20.66 1.51986 18.87L0.189863 10.9C-0.0301372 9.66 0.579863 8.07001 1.56986 7.28001L8.49986 1.73001C9.83986 0.650005 11.9499 0.660005 13.2999 1.74001L20.2299 7.28001C21.2099 8.07001 21.8099 9.66 21.6099 10.9L20.2799 18.86C19.9799 20.63 18.2799 22.06 16.4999 22.06ZM10.8899 2.43001C10.3599 2.43001 9.82986 2.59001 9.43986 2.90001L2.50986 8.46001C1.94986 8.91001 1.54986 9.95 1.66986 10.66L2.99986 18.62C3.17986 19.67 4.22986 20.56 5.29986 20.56H16.4999C17.5699 20.56 18.6199 19.67 18.7999 18.61L20.1299 10.65C20.2399 9.95 19.8399 8.89001 19.2899 8.45001L12.3599 2.91001C11.9599 2.59001 11.4199 2.43001 10.8899 2.43001Z" fill="#FFFFFF"/>
</svg>
