<svg width="14" height="19" viewBox="0 0 14 19" fill="none" xmlns="http://www.w3.org/2000/svg">
<path d="M2 16.7209C0.9 16.7209 0 17.6209 0 18.7209H14C14 17.6209 13.1 16.7209 12 16.7209H8V14.7209H11C12.1 14.7209 13 13.8209 13 12.7209H5C3.34 12.7209 2 11.3809 2 9.72085C2 8.63085 2.59 7.68085 3.46 7.16085C3.17 6.75085 3 6.26085 3 5.72085C3 5.51085 3.04 5.30085 3.09 5.10085C1.28 5.85085 0 7.64085 0 9.72085C0 12.4809 2.24 14.7209 5 14.7209V16.7209H2Z" fill="#FF2C79"/>
<path d="M5.56 3.23085C6.91 3.26085 8 4.36085 8 5.72085C8 6.47085 7.67 7.13085 7.15 7.59085L7.4 8.27085C7.59 8.79085 8.16 9.06085 8.68 8.87085C8.87 9.39085 9.44 9.66085 9.96 9.47085C10.48 9.28085 10.75 8.71085 10.56 8.19085C11.08 8.00085 11.35 7.43085 11.16 6.91085L9.1 1.26085C8.91 0.740853 8.34 0.470853 7.82 0.660853C7.63 0.140853 7.06 -0.129147 6.54 0.0608531C6.02 0.250853 5.75 0.820853 5.94 1.34085C5.42 1.53085 5.15 2.10085 5.34 2.62085L5.56 3.23085Z" fill="#FF2C79"/>
<path d="M5.5 7.22085C6.32843 7.22085 7 6.54928 7 5.72085C7 4.89243 6.32843 4.22085 5.5 4.22085C4.67157 4.22085 4 4.89243 4 5.72085C4 6.54928 4.67157 7.22085 5.5 7.22085Z" fill="#FF2C79"/>
</svg>
