<svg width="22" height="22" viewBox="0 0 22 22" fill="none" xmlns="http://www.w3.org/2000/svg">
<path d="M7.67188 13.3298C7.67188 14.6198 8.66188 15.6598 9.89188 15.6598H12.4019C13.4719 15.6598 14.3419 14.7498 14.3419 13.6298C14.3419 12.4098 13.8119 11.9798 13.0219 11.6998L8.99187 10.2998C8.20187 10.0198 7.67188 9.58984 7.67188 8.36984C7.67188 7.24984 8.54187 6.33984 9.61187 6.33984H12.1219C13.3519 6.33984 14.3419 7.37984 14.3419 8.66984" stroke="#7FC665" stroke-width="1.5" stroke-linecap="round" stroke-linejoin="round"/>
<path d="M11 5V17" stroke="#7FC665" stroke-width="1.5" stroke-linecap="round" stroke-linejoin="round"/>
<path d="M11 21C16.5228 21 21 16.5228 21 11C21 5.47715 16.5228 1 11 1C5.47715 1 1 5.47715 1 11C1 16.5228 5.47715 21 11 21Z" stroke="#7FC665" stroke-width="1.5" stroke-linecap="round" stroke-linejoin="round"/>
</svg>
