<svg width="20" height="22" viewBox="0 0 20 22" fill="none" xmlns="http://www.w3.org/2000/svg">
<path d="M10 18C13.31 18 16 15.31 16 12V7C16 3.69 13.31 1 10 1C6.69 1 4 3.69 4 7V12C4 15.31 6.69 18 10 18Z" stroke="#FE8B57" stroke-width="1.5" stroke-linecap="round" stroke-linejoin="round"/>
<path d="M1 10V12C1 16.97 5.03 21 10 21C14.97 21 19 16.97 19 12V10" stroke="#FE8B57" stroke-width="1.5" stroke-linecap="round" stroke-linejoin="round"/>
<path d="M7.11035 6.47999C8.89035 5.82999 10.8304 5.82999 12.6104 6.47999" stroke="#FE8B57" stroke-width="1.5" stroke-linecap="round" stroke-linejoin="round"/>
<path d="M8.03027 9.48001C9.23027 9.15001 10.5003 9.15001 11.7003 9.48001" stroke="#FE8B57" stroke-width="1.5" stroke-linecap="round" stroke-linejoin="round"/>
</svg>
