<svg width="22" height="22" viewBox="0 0 22 22" fill="none" xmlns="http://www.w3.org/2000/svg">
<path d="M15 1H7C3 1 1 3 1 7V20C1 20.55 1.45 21 2 21H15C19 21 21 19 21 15V7C21 3 19 1 15 1Z" stroke="#4FABFD" stroke-width="1.5" stroke-linecap="round" stroke-linejoin="round"/>
<path d="M11.9098 6.84L6.71979 12.03C6.51979 12.23 6.3298 12.62 6.2898 12.9L6.0098 14.88C5.9098 15.6 6.40979 16.1 7.12979 16L9.10978 15.72C9.38978 15.68 9.7798 15.49 9.9798 15.29L15.1698 10.1C16.0598 9.21 16.4898 8.17 15.1698 6.85C13.8498 5.52 12.8098 5.94 11.9098 6.84Z" stroke="#4FABFD" stroke-width="1.5" stroke-miterlimit="10" stroke-linecap="round" stroke-linejoin="round"/>
<path d="M11.1699 7.58002C11.6099 9.15002 12.8399 10.39 14.4199 10.83" stroke="#4FABFD" stroke-width="1.5" stroke-miterlimit="10" stroke-linecap="round" stroke-linejoin="round"/>
</svg>
