<svg width="22" height="22" viewBox="0 0 22 22" fill="none" xmlns="http://www.w3.org/2000/svg">
<path d="M16 21H6C3 21 1 19.5 1 16V11C1 7.5 3 6 6 6H16C19 6 21 7.5 21 11V16C21 19.5 19 21 16 21Z" stroke="#FF2C79" stroke-width="1.5" stroke-miterlimit="10" stroke-linecap="round" stroke-linejoin="round"/>
<path d="M5 3.5H17" stroke="#FF2C79" stroke-width="1.5" stroke-miterlimit="10" stroke-linecap="round" stroke-linejoin="round"/>
<path d="M8 1H14" stroke="#FF2C79" stroke-width="1.5" stroke-miterlimit="10" stroke-linecap="round" stroke-linejoin="round"/>
<path d="M7.89001 18.11C8.64664 18.11 9.26001 17.4966 9.26001 16.74C9.26001 15.9834 8.64664 15.37 7.89001 15.37C7.13338 15.37 6.52002 15.9834 6.52002 16.74C6.52002 17.4966 7.13338 18.11 7.89001 18.11Z" stroke="#FF2C79" stroke-width="1.5" stroke-linecap="round" stroke-linejoin="round"/>
<path d="M14.2798 15.83V10.48C14.2798 9.34001 13.5698 9.18003 12.8398 9.38003L10.0997 10.13C9.59973 10.27 9.25977 10.66 9.25977 11.23V12.18V12.82V16.74" stroke="#FF2C79" stroke-width="1.5" stroke-linecap="round" stroke-linejoin="round"/>
<path d="M12.91 17.2C13.6667 17.2 14.2801 16.5866 14.2801 15.83C14.2801 15.0734 13.6667 14.46 12.91 14.46C12.1534 14.46 11.54 15.0734 11.54 15.83C11.54 16.5866 12.1534 17.2 12.91 17.2Z" stroke="#FF2C79" stroke-width="1.5" stroke-linecap="round" stroke-linejoin="round"/>
<path d="M9.25977 12.83L14.2798 11.46" stroke="#FF2C79" stroke-width="1.5" stroke-linecap="round" stroke-linejoin="round"/>
</svg>
