<svg width="22" height="22" viewBox="0 0 22 22" fill="none" xmlns="http://www.w3.org/2000/svg">
<path d="M13.2617 14.998H8.26172" stroke="#4FABFD" stroke-width="1.5" stroke-miterlimit="10" stroke-linecap="round" stroke-linejoin="round"/>
<path d="M11.66 1.51814L11.63 1.58814L8.72996 8.31814H5.87996C5.19996 8.31814 4.54996 8.45814 3.95996 8.70814L5.70996 4.52814L5.74996 4.42814L5.81996 4.26814C5.83996 4.20814 5.85996 4.14814 5.88996 4.09814C7.19996 1.06814 8.67996 0.378136 11.66 1.51814Z" stroke="#4FABFD" stroke-width="1.5" stroke-linecap="round" stroke-linejoin="round"/>
<path d="M17.05 8.51807C16.6 8.37807 16.12 8.31807 15.64 8.31807H8.72998L11.63 1.58807L11.66 1.51807C11.81 1.56807 11.95 1.63807 12.1 1.69807L14.31 2.62807C15.54 3.13807 16.4 3.66807 16.92 4.30807C17.02 4.42807 17.1 4.53807 17.17 4.66807C17.26 4.80807 17.33 4.94807 17.37 5.09807C17.41 5.18807 17.44 5.27807 17.46 5.35807C17.73 6.19807 17.57 7.22807 17.05 8.51807Z" stroke="#4FABFD" stroke-width="1.5" stroke-linecap="round" stroke-linejoin="round"/>
<path d="M20.5217 13.1984V15.1484C20.5217 15.3484 20.5117 15.5484 20.5017 15.7484C20.3117 19.2384 18.3617 20.9984 14.6617 20.9984H6.86172C6.62172 20.9984 6.38172 20.9784 6.15172 20.9484C2.97172 20.7384 1.27172 19.0384 1.06172 15.8584C1.03172 15.6284 1.01172 15.3884 1.01172 15.1484V13.1984C1.01172 11.1884 2.23172 9.45836 3.97172 8.70836C4.57172 8.45836 5.21172 8.31836 5.89172 8.31836H15.6517C16.1417 8.31836 16.6217 8.38836 17.0617 8.51836C19.0517 9.12836 20.5217 10.9884 20.5217 13.1984Z" stroke="#4FABFD" stroke-width="1.5" stroke-linecap="round" stroke-linejoin="round"/>
<path d="M5.71 4.52808L3.96 8.70808C2.22 9.45808 1 11.1881 1 13.1981V10.2681C1 7.42808 3.02 5.05808 5.71 4.52808Z" stroke="#4FABFD" stroke-width="1.5" stroke-linecap="round" stroke-linejoin="round"/>
<path d="M20.5186 10.2677V13.1977C20.5186 10.9977 19.0586 9.12766 17.0586 8.52766C17.5786 7.22766 17.7286 6.20766 17.4786 5.35766C17.4586 5.26766 17.4286 5.17766 17.3886 5.09766C19.2486 6.05766 20.5186 8.02766 20.5186 10.2677Z" stroke="#4FABFD" stroke-width="1.5" stroke-linecap="round" stroke-linejoin="round"/>
</svg>
