<svg width="20" height="18" viewBox="0 0 20 18" fill="none" xmlns="http://www.w3.org/2000/svg">
<path d="M2.5 1.5L17.5 16.5" stroke="black" stroke-width="1.5" stroke-linecap="round" stroke-linejoin="round"/>
<path d="M8.82 7.82249C8.50727 8.13501 8.33149 8.55896 8.33133 9.00107C8.33117 9.44319 8.50665 9.86726 8.81917 10.18C9.13168 10.4927 9.55563 10.6685 9.99774 10.6687C10.4399 10.6688 10.8639 10.4933 11.1767 10.1808" stroke="black" stroke-width="1.5" stroke-linecap="round" stroke-linejoin="round"/>
<path d="M7.80251 3.47083C8.51702 3.26643 9.25683 3.16403 10 3.16666C13.3333 3.16666 16.1108 5.11083 18.3333 8.99999C17.685 10.1342 16.99 11.1033 16.2475 11.9067M14.4642 13.4575C13.105 14.3742 11.6183 14.8333 10 14.8333C6.66667 14.8333 3.88917 12.8892 1.66667 8.99999C2.80751 7.00416 4.09417 5.52083 5.52667 4.54916" stroke="black" stroke-width="1.5" stroke-linecap="round" stroke-linejoin="round"/>
</svg>
