<svg width="19" height="19" viewBox="0 0 19 19" fill="none" xmlns="http://www.w3.org/2000/svg">
<path d="M6.56249 13.5594L6.56235 13.558C6.5506 13.4376 6.63855 13.3262 6.76721 13.314L6.7693 13.3138C6.8779 13.3029 6.99987 13.3968 7.01228 13.5189C7.14696 14.9749 7.56687 16.0788 8.47703 16.7975C9.37096 17.5034 10.6498 17.765 12.3241 17.765H12.44C14.2852 17.765 15.6679 17.4433 16.5723 16.5389C17.4767 15.6345 17.7984 14.2518 17.7984 12.4066V6.59345C17.7984 4.7482 17.4767 3.36554 16.5723 2.46114C15.6679 1.55674 14.2852 1.23504 12.44 1.23504H12.3241C10.6406 1.23504 9.35533 1.50113 8.46058 2.22054C7.55245 2.95071 7.13874 4.07058 7.01269 5.54725C6.99232 5.6898 6.8791 5.76803 6.76721 5.75737L6.76722 5.75725L6.7567 5.75649C6.64135 5.74825 6.54566 5.6451 6.55421 5.51357C6.70005 3.81288 7.22443 2.66175 8.11586 1.92395C9.01735 1.17782 10.3716 0.789251 12.3152 0.789251H12.4311C14.5686 0.789251 15.9885 1.24808 16.8825 2.14205C17.7764 3.03602 18.2353 4.4559 18.2353 6.59345V12.4066C18.2353 14.5441 17.7764 15.964 16.8825 16.858C15.9885 17.7519 14.5686 18.2108 12.4311 18.2108H12.3152C10.3844 18.2108 9.0378 17.8287 8.13804 17.0942C7.24816 16.3678 6.72061 15.2346 6.56249 13.5594Z" stroke="white" stroke-width="0.891582"/>
<path d="M12.2172 10.1687H2.07103C1.70548 10.1687 1.40234 9.86555 1.40234 9.5C1.40234 9.13445 1.70548 8.83131 2.07103 8.83131H12.2172C12.5828 8.83131 12.8859 9.13445 12.8859 9.5C12.8859 9.86555 12.5828 10.1687 12.2172 10.1687Z" fill="white"/>
<path d="M4.05902 13.1555C3.88962 13.1555 3.72022 13.0931 3.58648 12.9593L0.599681 9.97253C0.341122 9.71398 0.341122 9.28602 0.599681 9.02746L3.58648 6.04066C3.84504 5.7821 4.273 5.7821 4.53156 6.04066C4.79011 6.29922 4.79011 6.72718 4.53156 6.98574L2.0173 9.5L4.53156 12.0143C4.79011 12.2728 4.79011 12.7008 4.53156 12.9593C4.40673 13.0931 4.22842 13.1555 4.05902 13.1555Z" fill="white"/>
</svg>
