<svg width="24" height="26" viewBox="0 0 24 26" fill="none" xmlns="http://www.w3.org/2000/svg">
<path d="M16.6667 25.5417H7.33333C3.075 25.5417 0.625 23.0917 0.625 18.8333V7.16666C0.625 2.90833 3.075 0.458328 7.33333 0.458328H16.6667C20.925 0.458328 23.375 2.90833 23.375 7.16666V18.8333C23.375 23.0917 20.925 25.5417 16.6667 25.5417ZM7.33333 2.20833C3.99667 2.20833 2.375 3.83 2.375 7.16666V18.8333C2.375 22.17 3.99667 23.7917 7.33333 23.7917H16.6667C20.0033 23.7917 21.625 22.17 21.625 18.8333V7.16666C21.625 3.83 20.0033 2.20833 16.6667 2.20833H7.33333Z" fill="#FFFFFF"/>
<path d="M19.5832 9.79167H17.2498C15.4765 9.79167 14.0415 8.35667 14.0415 6.58333V4.25C14.0415 3.77167 14.4382 3.375 14.9165 3.375C15.3948 3.375 15.7915 3.77167 15.7915 4.25V6.58333C15.7915 7.38833 16.4448 8.04167 17.2498 8.04167H19.5832C20.0615 8.04167 20.4582 8.43833 20.4582 8.91667C20.4582 9.395 20.0615 9.79167 19.5832 9.79167Z" fill="#FFFFFF"/>
<path d="M12.0002 15.0417H7.3335C6.85516 15.0417 6.4585 14.645 6.4585 14.1667C6.4585 13.6883 6.85516 13.2917 7.3335 13.2917H12.0002C12.4785 13.2917 12.8752 13.6883 12.8752 14.1667C12.8752 14.645 12.4785 15.0417 12.0002 15.0417Z" fill="#FFFFFF"/>
<path d="M16.6668 19.7083H7.3335C6.85516 19.7083 6.4585 19.3117 6.4585 18.8333C6.4585 18.355 6.85516 17.9583 7.3335 17.9583H16.6668C17.1452 17.9583 17.5418 18.355 17.5418 18.8333C17.5418 19.3117 17.1452 19.7083 16.6668 19.7083Z" fill="#FFFFFF"/>
</svg>
