<svg width="19" height="22" viewBox="0 0 19 22" fill="none" xmlns="http://www.w3.org/2000/svg">
<path d="M13.5498 2.98999H5.5498C4.48894 2.98999 3.47158 3.41135 2.72144 4.1615C1.97129 4.91164 1.5498 5.92912 1.5498 6.98999V16.99C1.5498 18.0509 1.97129 19.0682 2.72144 19.8184C3.47158 20.5685 4.48894 20.99 5.5498 20.99H13.5498C14.6107 20.99 15.6281 20.5685 16.3782 19.8184C17.1284 19.0682 17.5498 18.0509 17.5498 16.99V6.98999C17.5498 5.92912 17.1284 4.91164 16.3782 4.1615C15.6281 3.41135 14.6107 2.98999 13.5498 2.98999Z" stroke="#ffffff" stroke-width="1.5" stroke-linecap="round" stroke-linejoin="round"/>
<path d="M6.5498 1V6" stroke="#ffffff" stroke-width="1.5" stroke-linecap="round" stroke-linejoin="round"/>
<path d="M12.5498 1V6" stroke="#ffffff" stroke-width="1.5" stroke-linecap="round" stroke-linejoin="round"/>
<path d="M5.5498 15H11.5498" stroke="#ffffff" stroke-width="1.5" stroke-linecap="round" stroke-linejoin="round"/>
<path d="M5.5498 11H13.5498" stroke="#ffffff" stroke-width="1.5" stroke-linecap="round" stroke-linejoin="round"/>
</svg>
