<svg width="20" height="22" viewBox="0 0 20 22" fill="none" xmlns="http://www.w3.org/2000/svg">
<path d="M10 9.52C9.59 9.52 9.25 9.18 9.25 8.77V5.44C9.25 5.03 9.59 4.69 10 4.69C10.41 4.69 10.75 5.03 10.75 5.44V8.77C10.75 9.19 10.41 9.52 10 9.52Z" fill="#ffffff"/>
<path d="M10.0199 19.35C7.43987 19.35 4.86987 18.94 2.41987 18.12C1.50987 17.82 0.819867 17.17 0.519867 16.35C0.219867 15.53 0.319867 14.59 0.809867 13.77L2.07987 11.65C2.35987 11.18 2.60987 10.3 2.60987 9.74999V7.64999C2.60987 3.55999 5.92987 0.23999 10.0199 0.23999C14.1099 0.23999 17.4299 3.55999 17.4299 7.64999V9.74999C17.4299 10.29 17.6799 11.18 17.9599 11.65L19.2299 13.77C19.6999 14.55 19.7799 15.48 19.4699 16.33C19.1599 17.18 18.4799 17.83 17.6199 18.12C15.1699 18.95 12.5999 19.35 10.0199 19.35ZM10.0199 1.74999C6.75987 1.74999 4.10987 4.39999 4.10987 7.65999V9.75999C4.10987 10.57 3.78987 11.74 3.36987 12.43L2.09987 14.56C1.83987 14.99 1.77987 15.45 1.92987 15.85C2.07987 16.25 2.41987 16.55 2.89987 16.71C7.49987 18.24 12.5599 18.24 17.1599 16.71C17.5899 16.57 17.9199 16.25 18.0699 15.83C18.2299 15.41 18.1799 14.95 17.9499 14.56L16.6799 12.44C16.2599 11.75 15.9399 10.58 15.9399 9.76999V7.66999C15.9299 4.39999 13.2799 1.74999 10.0199 1.74999Z" fill="#ffffff"/>
<path d="M9.99992 21.9C8.92992 21.9 7.87992 21.46 7.11992 20.7C6.35992 19.94 5.91992 18.89 5.91992 17.82H7.41992C7.41992 18.5 7.69992 19.16 8.17992 19.64C8.65992 20.12 9.31992 20.4 9.99992 20.4C11.4199 20.4 12.5799 19.24 12.5799 17.82H14.0799C14.0799 20.07 12.2499 21.9 9.99992 21.9Z" fill="#ffffff"/>
</svg>
