<svg width="14" height="18" viewBox="0 0 14 18" fill="none" xmlns="http://www.w3.org/2000/svg">
<path d="M11.1665 8.16666H2.83317C1.9127 8.16666 1.1665 8.91285 1.1665 9.83332V14.8333C1.1665 15.7538 1.9127 16.5 2.83317 16.5H11.1665C12.087 16.5 12.8332 15.7538 12.8332 14.8333V9.83332C12.8332 8.91285 12.087 8.16666 11.1665 8.16666Z" stroke="black" stroke-width="1.25" stroke-linecap="round" stroke-linejoin="round"/>
<path d="M6.99984 13.1667C7.46007 13.1667 7.83317 12.7936 7.83317 12.3333C7.83317 11.8731 7.46007 11.5 6.99984 11.5C6.5396 11.5 6.1665 11.8731 6.1665 12.3333C6.1665 12.7936 6.5396 13.1667 6.99984 13.1667Z" stroke="black" stroke-width="1.66667" stroke-linecap="round" stroke-linejoin="round"/>
<path d="M3.6665 8.16667V4.83333C3.6665 3.94928 4.01769 3.10143 4.64281 2.47631C5.26794 1.85119 6.11578 1.5 6.99984 1.5C7.88389 1.5 8.73174 1.85119 9.35686 2.47631C9.98198 3.10143 10.3332 3.94928 10.3332 4.83333V8.16667" stroke="black" stroke-width="1.25" stroke-linecap="round" stroke-linejoin="round"/>
</svg>
