<svg width="20" height="19" viewBox="0 0 20 19" fill="none" xmlns="http://www.w3.org/2000/svg">
<path d="M4.85301 18.1379L4.85301 18.1379L4.84995 18.137C4.80155 18.1227 4.75595 18.0687 4.75786 17.9996C4.9437 15.8433 7.17624 14.0166 10.0005 14.0166C12.8273 14.0166 15.0552 15.8389 15.244 18.0087C15.2467 18.0435 15.2376 18.0698 15.2246 18.0887C15.2115 18.1076 15.1898 18.1259 15.1548 18.1359L15.1548 18.1358L15.148 18.1379C14.4348 18.3526 13.5703 18.4583 12.5005 18.4583H7.50053C6.43071 18.4583 5.56624 18.3526 4.85301 18.1379ZM5.11855 17.4169L4.97516 17.9364L5.5039 18.0405C6.09478 18.1569 6.75384 18.2083 7.50053 18.2083H12.5005C13.2472 18.2083 13.9063 18.1569 14.4972 18.0405L15.0259 17.9364L14.8825 17.4169C14.3634 15.5365 12.2851 14.2666 10.0005 14.2666C7.71591 14.2666 5.63762 15.5365 5.11855 17.4169Z" fill="black" stroke="black"/>
<path d="M12.5003 1.66663H7.50033C3.33366 1.66663 1.66699 3.33329 1.66699 7.49996V12.5C1.66699 15.65 2.61699 17.375 4.88366 18.0166C5.06699 15.85 7.29199 14.1416 10.0003 14.1416C12.7087 14.1416 14.9337 15.85 15.117 18.0166C17.3837 17.375 18.3337 15.65 18.3337 12.5V7.49996C18.3337 3.33329 16.667 1.66663 12.5003 1.66663ZM10.0003 11.8083C8.35033 11.8083 7.01699 10.4666 7.01699 8.81664C7.01699 7.16664 8.35033 5.83329 10.0003 5.83329C11.6503 5.83329 12.9837 7.16664 12.9837 8.81664C12.9837 10.4666 11.6503 11.8083 10.0003 11.8083Z" stroke="black" stroke-width="1.5" stroke-linecap="round" stroke-linejoin="round"/>
<path d="M9.99994 12.4334C8.00827 12.4334 6.3916 10.8084 6.3916 8.81672C6.3916 6.82505 8.00827 5.20837 9.99994 5.20837C11.9916 5.20837 13.6083 6.82505 13.6083 8.81672C13.6083 10.8084 11.9916 12.4334 9.99994 12.4334ZM9.99994 6.45837C8.69994 6.45837 7.6416 7.51672 7.6416 8.81672C7.6416 10.1251 8.69994 11.1834 9.99994 11.1834C11.2999 11.1834 12.3583 10.1251 12.3583 8.81672C12.3583 7.51672 11.2999 6.45837 9.99994 6.45837Z" fill="black"/>
</svg>
