<svg width="20" height="20" viewBox="0 0 20 20" fill="none" xmlns="http://www.w3.org/2000/svg">
<path d="M17.5285 11.7932C17.4462 11.8659 17.3965 11.9686 17.3913 12.0782C17.3427 13.0908 17.2595 14.1021 17.1415 15.1104C16.9874 16.4281 15.9219 17.4777 14.5918 17.6264C11.236 18.0014 7.76441 18.0014 4.40856 17.6264C3.07845 17.4777 2.01297 16.4281 1.85885 15.1104C1.45786 11.6819 1.45786 8.21832 1.85885 4.7898C2.01297 3.47212 3.07846 2.42251 4.40856 2.27385C6.62109 2.02656 8.88662 1.94243 11.1336 2.02122C11.2959 2.02691 11.434 1.90345 11.4453 1.74148L11.4945 1.03846C11.4975 0.997072 11.5016 0.956124 11.5066 0.915637C11.5311 0.721245 11.3963 0.529566 11.2005 0.52263C8.8749 0.440245 6.53293 0.527078 4.24195 0.783129C2.2299 1.00801 0.605562 2.59302 0.369009 4.61554C-0.045529 8.15984 -0.045529 11.7404 0.369009 15.2847C0.605562 17.3072 2.2299 18.8922 4.24195 19.1171C7.70853 19.5045 11.2919 19.5045 14.7584 19.1171C16.7705 18.8922 18.3948 17.3072 18.6314 15.2847C18.8004 13.8399 18.9005 12.389 18.9317 10.9371C18.9356 10.7548 18.712 10.664 18.5841 10.7939C18.244 11.1392 17.8919 11.4725 17.5285 11.7932Z" fill="#FF2C79"/>
<path d="M5.3674 13.2499C5.14617 13.189 4.99483 12.9852 5.00034 12.7558L5.05958 10.292C5.1444 6.76402 8.02872 3.94821 11.5577 3.94821L12.8151 3.94822C12.8414 3.32449 12.8773 2.70106 12.9227 2.07815L12.9905 1.14752C13.0319 0.579569 13.6652 0.262084 14.145 0.568699C16.216 1.89199 18.0164 3.59708 19.4502 5.5931L19.9063 6.22803C20.0315 6.40235 20.0315 6.63714 19.9063 6.81145L19.4502 7.44639C18.0163 9.4424 16.216 11.1475 14.145 12.4708C13.7499 12.7233 13.2492 12.5525 13.0622 12.1672C13.0229 12.0854 12.9977 11.991 12.9905 11.892L12.9227 10.9613C12.8685 10.2185 12.828 9.47483 12.801 8.73083L12.4469 8.67754C10.1907 8.33796 7.95903 9.42672 6.83799 11.414L5.93569 13.0135C5.89271 13.0897 5.83173 13.1512 5.76088 13.1946C5.64593 13.2647 5.50416 13.2876 5.3674 13.2499Z" fill="#FF2C79"/>
</svg>
