<svg width="19" height="20" viewBox="0 0 19 20" fill="none" xmlns="http://www.w3.org/2000/svg">
<path d="M13.6972 0.956991L4.66725 3.95699C-1.40275 5.98699 -1.40275 9.29699 4.66725 11.317L7.34725 12.207L8.23725 14.887C10.2572 20.957 13.5772 20.957 15.5972 14.887L18.6072 5.86699C19.9472 1.81699 17.7472 -0.393009 13.6972 0.956991ZM14.0172 6.33699L10.2172 10.157C10.0672 10.307 9.87725 10.377 9.68725 10.377C9.49725 10.377 9.30725 10.307 9.15725 10.157C8.86725 9.86699 8.86725 9.38699 9.15725 9.09699L12.9572 5.27699C13.2472 4.98699 13.7272 4.98699 14.0172 5.27699C14.3072 5.56699 14.3072 6.04699 14.0172 6.33699Z" fill="#FFF0F6"/>
</svg>
