<svg width="22" height="22" viewBox="0 0 22 22" fill="none" xmlns="http://www.w3.org/2000/svg">
<path d="M11 14.75C8.93 14.75 7.25 13.07 7.25 11C7.25 8.93 8.93 7.25 11 7.25C13.07 7.25 14.75 8.93 14.75 11C14.75 13.07 13.07 14.75 11 14.75ZM11 8.75C9.76 8.75 8.75 9.76 8.75 11C8.75 12.24 9.76 13.25 11 13.25C12.24 13.25 13.25 12.24 13.25 11C13.25 9.76 12.24 8.75 11 8.75Z" fill="black"/>
<path d="M14.21 21.19C14 21.19 13.79 21.16 13.58 21.11C12.96 20.94 12.44 20.55 12.11 20L11.99 19.8C11.4 18.78 10.59 18.78 10 19.8L9.89 19.99C9.56 20.55 9.04 20.95 8.42 21.11C7.79 21.28 7.14 21.19 6.59 20.86L4.87 19.87C4.26 19.52 3.82 18.95 3.63 18.26C3.45 17.57 3.54 16.86 3.89 16.25C4.18 15.74 4.26 15.28 4.09 14.99C3.92 14.7 3.49 14.53 2.9 14.53C1.44 14.53 0.25 13.34 0.25 11.88V10.12C0.25 8.65998 1.44 7.46998 2.9 7.46998C3.49 7.46998 3.92 7.29998 4.09 7.00998C4.26 6.71998 4.19 6.25998 3.89 5.74998C3.54 5.13998 3.45 4.41998 3.63 3.73998C3.81 3.04998 4.25 2.47998 4.87 2.12998L6.6 1.13998C7.73 0.469981 9.22 0.859981 9.9 2.00998L10.02 2.20998C10.61 3.22998 11.42 3.22998 12.01 2.20998L12.12 2.01998C12.8 0.859981 14.29 0.469981 15.43 1.14998L17.15 2.13998C17.76 2.48998 18.2 3.05998 18.39 3.74998C18.57 4.43998 18.48 5.14998 18.13 5.75998C17.84 6.26998 17.76 6.72998 17.93 7.01998C18.1 7.30998 18.53 7.47998 19.12 7.47998C20.58 7.47998 21.77 8.66998 21.77 10.13V11.89C21.77 13.35 20.58 14.54 19.12 14.54C18.53 14.54 18.1 14.71 17.93 15C17.76 15.29 17.83 15.75 18.13 16.26C18.48 16.87 18.58 17.59 18.39 18.27C18.21 18.96 17.77 19.53 17.15 19.88L15.42 20.87C15.04 21.08 14.63 21.19 14.21 21.19ZM11 17.49C11.89 17.49 12.72 18.05 13.29 19.04L13.4 19.23C13.52 19.44 13.72 19.59 13.96 19.65C14.2 19.71 14.44 19.68 14.64 19.56L16.37 18.56C16.63 18.41 16.83 18.16 16.91 17.86C16.99 17.56 16.95 17.25 16.8 16.99C16.23 16.01 16.16 15 16.6 14.23C17.04 13.46 17.95 13.02 19.09 13.02C19.73 13.02 20.24 12.51 20.24 11.87V10.11C20.24 9.47998 19.73 8.95998 19.09 8.95998C17.95 8.95998 17.04 8.51998 16.6 7.74998C16.16 6.97998 16.23 5.96998 16.8 4.98998C16.95 4.72998 16.99 4.41998 16.91 4.11998C16.83 3.81998 16.64 3.57998 16.38 3.41998L14.65 2.42998C14.22 2.16998 13.65 2.31998 13.39 2.75998L13.28 2.94998C12.71 3.93998 11.88 4.49998 10.99 4.49998C10.1 4.49998 9.27 3.93998 8.7 2.94998L8.59 2.74998C8.34 2.32998 7.78 2.17998 7.35 2.42998L5.62 3.42998C5.36 3.57998 5.16 3.82998 5.08 4.12998C5 4.42998 5.04 4.73998 5.19 4.99998C5.76 5.97998 5.83 6.98998 5.39 7.75998C4.95 8.52998 4.04 8.96998 2.9 8.96998C2.26 8.96998 1.75 9.47998 1.75 10.12V11.88C1.75 12.51 2.26 13.03 2.9 13.03C4.04 13.03 4.95 13.47 5.39 14.24C5.83 15.01 5.76 16.02 5.19 17C5.04 17.26 5 17.57 5.08 17.87C5.16 18.17 5.35 18.41 5.61 18.57L7.34 19.56C7.55 19.69 7.8 19.72 8.03 19.66C8.27 19.6 8.47 19.44 8.6 19.23L8.71 19.04C9.28 18.06 10.11 17.49 11 17.49Z" fill="black"/>
</svg>
