<svg width="137" height="31" viewBox="0 0 137 31" fill="none" xmlns="http://www.w3.org/2000/svg">
<path d="M24.772 30.076H15.88L11.956 25.288C4.54 24.712 0.22 19.96 0.22 12.94C0.22 5.416 5.188 0.52 13.576 0.52C22.18 0.52 27.076 5.416 27.076 12.94C27.076 18.52 24.412 22.624 19.516 24.388L24.772 30.076ZM13.576 18.88C18.472 18.88 19.876 17.728 19.876 12.94C19.876 8.152 18.472 7 13.576 7C8.68 7 7.42 8.152 7.42 12.94C7.42 17.728 8.68 18.88 13.576 18.88ZM36.3328 25.36C31.2568 25.36 28.8808 22.408 28.8808 18.484V6.856H35.6488V16C35.6488 18.52 36.6208 19.312 39.7168 19.312C42.8488 19.312 43.6048 18.556 43.6048 16.216V6.856H50.3728V25H44.0368V19.492H43.6768C43.2808 22.516 41.2648 25.36 36.3328 25.36ZM59.1683 5.2H52.4003V0.879999H59.1683V5.2ZM59.1683 25H52.4003V6.856H59.1683V25ZM80.518 25H60.79V19.24L67.342 14.848L71.122 12.94V12.472L67.342 12.76H61.33V6.856H79.978V12.616L72.85 17.188L69.322 18.988V19.456L72.85 19.096H80.518V25ZM88.9105 25H82.1425V0.879999H91.3225L95.7505 10.888L98.1265 17.116H98.5945L100.863 10.888L105.075 0.879999H114.255V25H107.487V15.028L107.739 10.996H107.271L105.903 15.028L102.303 23.56H94.0945L90.4945 15.028L89.1265 10.996H88.6585L88.9105 15.028V25ZM126.536 25.36C120.38 25.36 116.06 22.732 116.06 15.928C116.06 10.024 120.344 6.496 126.392 6.496C132.656 6.496 136.652 9.628 136.652 15.46C136.652 16.072 136.616 16.54 136.544 17.188H122.324C122.432 19.384 123.404 19.996 126.284 19.996C129.02 19.996 129.74 19.528 129.74 18.448V18.052H136.508V18.484C136.508 22.516 132.656 25.36 126.536 25.36ZM126.248 11.68C123.764 11.68 122.72 12.22 122.432 13.768H130.1C129.848 12.22 128.768 11.68 126.248 11.68Z" fill="#FF2C79"/>
</svg>
