<svg width="18" height="16" viewBox="0 0 18 16" fill="none" xmlns="http://www.w3.org/2000/svg">
<path d="M1.17585 10.1469L0.789202 10.2388L0.791512 10.6362C0.795738 11.363 0.835905 11.9783 0.951967 12.4866C1.06955 13.0015 1.27214 13.4386 1.62314 13.774C1.97252 14.1079 2.42117 14.2953 2.94463 14.4021C3.46347 14.5081 4.09113 14.5417 4.83317 14.5417H13.1665C13.8715 14.5417 14.4722 14.511 14.9741 14.4173C15.4782 14.3231 15.9163 14.1593 16.2676 13.8685C16.981 13.278 17.1621 12.3138 17.1996 11.065L17.2118 10.6578L16.8155 10.5636C15.8453 10.3329 15.1248 9.45612 15.1248 8.41668C15.1248 7.37955 15.8513 6.50101 16.8238 6.26978L17.2082 6.1784V5.78334V5.50001C17.2082 4.74764 17.1736 4.11243 17.0637 3.58884C16.9526 3.05972 16.7574 2.60844 16.41 2.26036C16.0626 1.91222 15.6115 1.71598 15.0818 1.60415C14.5576 1.4935 13.9212 1.45834 13.1665 1.45834H4.83317C4.09113 1.45834 3.46347 1.49197 2.94463 1.59787C2.42117 1.70472 1.97252 1.89215 1.62314 2.22603C1.27214 2.56146 1.06955 2.99851 0.951967 3.51344C0.835905 4.02173 0.795738 4.637 0.791512 5.36377L0.789202 5.76119L1.17585 5.85312C2.14837 6.08435 2.87484 6.96288 2.87484 8.00001C2.87484 9.03714 2.14837 9.91567 1.17585 10.1469ZM13.1665 14.7917H4.83317C3.01289 14.7917 1.99921 14.5069 1.41277 13.9204C0.826318 13.334 0.541504 12.3203 0.541504 10.5V10.0833C0.541504 10.0532 0.553788 10.0219 0.579432 9.99627C0.605076 9.97063 0.636356 9.95834 0.666504 9.95834C1.74265 9.95834 2.62484 9.07615 2.62484 8.00001C2.62484 6.92387 1.74265 6.04168 0.666504 6.04168C0.636356 6.04168 0.605076 6.02939 0.579432 6.00375C0.553788 5.9781 0.541504 5.94682 0.541504 5.91668V5.50001C0.541504 3.67973 0.826318 2.66605 1.41277 2.07961C1.99921 1.49316 3.01289 1.20834 4.83317 1.20834H13.1665C14.9868 1.20834 16.0005 1.49316 16.5869 2.07961C17.1734 2.66605 17.4582 3.67973 17.4582 5.50001V6.33334C17.4582 6.36349 17.4459 6.39477 17.4202 6.42042C17.3946 6.44606 17.3633 6.45834 17.3332 6.45834C16.257 6.45834 15.3748 7.34053 15.3748 8.41668C15.3748 9.49282 16.257 10.375 17.3332 10.375C17.3633 10.375 17.3946 10.3873 17.4202 10.4129C17.4459 10.4386 17.4582 10.4699 17.4582 10.5C17.4582 12.3203 17.1734 13.334 16.5869 13.9204C16.0005 14.5069 14.9868 14.7917 13.1665 14.7917Z" fill="black" stroke="black"/>
<path d="M7.3335 4.04168C6.99183 4.04168 6.7085 3.75834 6.7085 3.41668V1.33334C6.7085 0.991677 6.99183 0.708344 7.3335 0.708344C7.67516 0.708344 7.9585 0.991677 7.9585 1.33334V3.41668C7.9585 3.75834 7.67516 4.04168 7.3335 4.04168Z" fill="black"/>
<path d="M7.3335 10.15C6.99183 10.15 6.7085 9.86667 6.7085 9.52501V6.46667C6.7085 6.12501 6.99183 5.84167 7.3335 5.84167C7.67516 5.84167 7.9585 6.12501 7.9585 6.46667V9.52501C7.9585 9.87501 7.67516 10.15 7.3335 10.15Z" fill="black"/>
<path d="M7.3335 15.2917C6.99183 15.2917 6.7085 15.0083 6.7085 14.6667V12.5833C6.7085 12.2417 6.99183 11.9583 7.3335 11.9583C7.67516 11.9583 7.9585 12.2417 7.9585 12.5833V14.6667C7.9585 15.0083 7.67516 15.2917 7.3335 15.2917Z" fill="black"/>
</svg>
