<svg width="28" height="28" viewBox="0 0 28 28" fill="none" xmlns="http://www.w3.org/2000/svg">
<path d="M10.2498 21.1875C9.73731 21.1875 9.31231 20.7625 9.31231 20.25V15.0125L8.41231 15.9125C8.04981 16.275 7.4498 16.275 7.0873 15.9125C6.7248 15.55 6.7248 14.95 7.0873 14.5875L9.58731 12.0875C9.84981 11.825 10.2623 11.7375 10.6123 11.8875C10.9623 12.025 11.1873 12.375 11.1873 12.75V20.25C11.1873 20.7625 10.7623 21.1875 10.2498 21.1875Z" fill="#FFFFFF"/>
<path d="M12.7498 16.1875C12.5123 16.1875 12.2748 16.1 12.0873 15.9125L9.5873 13.4125C9.2248 13.05 9.2248 12.45 9.5873 12.0875C9.9498 11.725 10.5498 11.725 10.9123 12.0875L13.4123 14.5875C13.7748 14.95 13.7748 15.55 13.4123 15.9125C13.2248 16.1 12.9873 16.1875 12.7498 16.1875Z" fill="#FFFFFF"/>
<path d="M17.75 27.4375H10.25C3.4625 27.4375 0.5625 24.5375 0.5625 17.75V10.25C0.5625 3.4625 3.4625 0.5625 10.25 0.5625H16.5C17.0125 0.5625 17.4375 0.9875 17.4375 1.5C17.4375 2.0125 17.0125 2.4375 16.5 2.4375H10.25C4.4875 2.4375 2.4375 4.4875 2.4375 10.25V17.75C2.4375 23.5125 4.4875 25.5625 10.25 25.5625H17.75C23.5125 25.5625 25.5625 23.5125 25.5625 17.75V11.5C25.5625 10.9875 25.9875 10.5625 26.5 10.5625C27.0125 10.5625 27.4375 10.9875 27.4375 11.5V17.75C27.4375 24.5375 24.5375 27.4375 17.75 27.4375Z" fill="#FFFFFF"/>
<path d="M26.5 12.4375H21.5C17.225 12.4375 15.5625 10.775 15.5625 6.50002V1.50002C15.5625 1.12502 15.7875 0.775016 16.1375 0.637516C16.4875 0.487516 16.8875 0.575016 17.1625 0.837516L27.1625 10.8375C27.425 11.1 27.5125 11.5125 27.3625 11.8625C27.2125 12.2125 26.875 12.4375 26.5 12.4375ZM17.4375 3.76252V6.50002C17.4375 9.72502 18.275 10.5625 21.5 10.5625H24.2375L17.4375 3.76252Z" fill="#FFFFFF"/>
</svg>
