<svg width="21" height="20" viewBox="0 0 21 20" fill="none" xmlns="http://www.w3.org/2000/svg">
<path d="M10.4997 19.8541C5.06384 19.8541 0.645508 15.4358 0.645508 9.99992C0.645508 4.56409 5.06384 0.145752 10.4997 0.145752C15.9355 0.145752 20.3538 4.56409 20.3538 9.99992C20.3538 15.4358 15.9355 19.8541 10.4997 19.8541ZM10.4997 1.52075C5.82467 1.52075 2.02051 5.32492 2.02051 9.99992C2.02051 14.6749 5.82467 18.4791 10.4997 18.4791C15.1747 18.4791 18.9788 14.6749 18.9788 9.99992C18.9788 5.32492 15.1747 1.52075 10.4997 1.52075Z" fill="white"/>
<path d="M7.90591 13.2817C7.73174 13.2817 7.55758 13.2176 7.42008 13.0801C7.15424 12.8142 7.15424 12.3742 7.42008 12.1084L12.6084 6.92008C12.8742 6.65424 13.3142 6.65424 13.5801 6.92008C13.8459 7.18591 13.8459 7.62591 13.5801 7.89174L8.39174 13.0801C8.26341 13.2176 8.08008 13.2817 7.90591 13.2817Z" fill="white"/>
<path d="M13.0942 13.2817C12.9201 13.2817 12.7459 13.2176 12.6084 13.0801L7.42008 7.89174C7.15424 7.62591 7.15424 7.18591 7.42008 6.92008C7.68591 6.65424 8.12591 6.65424 8.39174 6.92008L13.5801 12.1084C13.8459 12.3742 13.8459 12.8142 13.5801 13.0801C13.4426 13.2176 13.2684 13.2817 13.0942 13.2817Z" fill="white"/>
</svg>
